<svg width="250" height="249" viewBox="0 0 250 249" fill="none" xmlns="http://www.w3.org/2000/svg">
<mask id="mask0_2_51" style="mask-type:luminance" maskUnits="userSpaceOnUse" x="2" y="2" width="246" height="245">
<path d="M217.929 2.27669H32.197C16.0198 2.27669 2.90559 15.3909 2.90559 31.5681V217.3C2.90559 233.477 16.0198 246.591 32.197 246.591H217.929C234.106 246.591 247.22 233.477 247.22 217.3V31.5681C247.22 15.3909 234.106 2.27669 217.929 2.27669Z" fill="white"/>
</mask>
<g mask="url(#mask0_2_51)">
<path d="M119.648 300.691C121.834 294.721 124.033 288.759 126.205 282.783C138.428 249.186 150.67 215.603 162.806 181.98C163.757 179.345 165.104 178.434 167.851 178.494C175.22 178.659 182.602 178.725 189.965 178.467C193.372 178.348 195.776 179.927 198.377 181.61C201.032 183.327 203.303 186.622 206.374 186.444C209.253 186.279 211.068 182.693 213.71 181.175C221.198 176.869 223.852 170.755 222.954 162.078C221.97 152.59 223.443 142.943 222.254 133.414C220.148 116.59 211.26 105.047 195.228 99.197C193.095 98.4178 190.909 97.784 188.486 96.6086C209.807 91.0884 223.172 77.8228 228.785 56.2967C234.424 77.7303 247.755 91.062 269.354 96.2256C268.007 97.949 266.376 97.9424 265.009 98.3386C249.472 102.895 239.904 113.136 236.041 128.766C235.223 132.074 234.965 135.474 234.965 138.908C234.991 221.103 234.985 303.292 234.985 385.488C234.985 386.478 234.886 387.482 234.998 388.459C235.348 391.424 233.955 392.203 231.162 392.19C209.378 392.104 187.588 392.144 165.804 392.144C115.739 392.144 65.6747 392.144 15.61 392.144C14.6195 392.144 13.6225 392.084 12.6386 392.144C9.49552 392.355 9.8653 390.678 10.6247 388.618C14.2365 378.812 17.8088 368.993 21.3943 359.174C25.0921 349.052 28.7304 338.903 32.5205 328.807C33.5704 326.02 32.712 325.281 29.9916 325.366C25.924 325.492 21.8499 325.446 17.7824 325.38C11.3708 325.281 7.58062 321.424 7.5278 315.052C7.49698 310.892 9.59017 308.81 13.8073 308.806C21.2887 308.806 28.77 308.812 36.2513 308.793C37.4333 308.793 38.7869 309.083 39.6849 308.06C40.7216 306.878 41.5404 305.273 41.1838 303.84C40.7612 302.17 38.9189 302.982 37.737 302.975C22.5499 302.916 7.36932 302.896 -7.81781 302.975C-10.5581 302.989 -11.3241 302.381 -10.2874 299.568C2.95845 263.654 16.125 227.713 29.2586 191.753C30.018 189.679 31.3716 188.326 32.9233 186.86C40.0547 180.158 48.2227 177.133 58.0878 178.447C62.0892 178.982 66.2294 178.698 70.2837 178.48C73.1296 178.329 74.3446 179.563 75.269 182.092C86.6066 213.2 98.0299 244.274 109.433 275.361C112.537 283.813 115.654 292.252 118.764 300.697C119.061 300.691 119.358 300.684 119.655 300.677L119.648 300.691ZM222.531 376.369C222.729 375.108 222.815 374.797 222.815 374.494C222.822 331.923 222.809 289.353 222.868 246.783C222.868 243.924 221.917 244.056 219.785 245C208.421 250.025 197.004 254.931 185.607 259.89C182.525 261.233 181.548 263.467 182.675 266.592C190.85 289.129 199.018 311.665 207.199 334.201C212.184 347.942 217.189 361.677 222.531 376.369Z" fill="white"/>
<path d="M160.792 -3.77175C161.208 -2.67563 160.39 -1.92948 159.941 -1.10409C154.401 9.15713 148.88 19.4316 143.248 29.6333C142.251 31.4426 142.152 32.9745 142.865 34.9026C157.002 73.2997 171.08 111.723 185.171 150.14C186.723 154.366 186.69 154.425 182.035 154.425C140.224 154.425 98.4129 154.425 56.5954 154.425C51.795 154.425 51.7554 154.406 53.3665 150.014C68.8376 107.768 84.3284 65.5278 99.7863 23.2812C100.381 21.6568 101.127 20.4022 102.85 19.6891C121.55 11.9502 140.23 4.15198 158.924 -3.61327C159.492 -3.85098 160.092 -4.32641 160.792 -3.76514V-3.77175Z" fill="white"/>
<path d="M257.983 185.037C257.983 188.445 258.023 191.852 257.977 195.259C257.865 203.295 250.819 208.254 243.087 205.837C241.7 205.408 241.515 204.384 241.515 203.288C241.489 191.092 241.502 178.896 241.495 166.701C241.495 164.713 242.592 164.158 244.44 164.053C254.173 163.498 257.99 167.044 257.997 176.797C257.997 179.544 257.997 182.29 257.997 185.037H257.983Z" fill="white"/>
<path d="M151 185.42C145.843 188.167 140.99 191.528 135.219 192.948C132.874 193.522 130.544 192.426 128.728 191.053C122.356 186.233 116.274 186.127 109.797 191.007C105.894 193.945 101.648 193.43 97.4752 190.822C94.2859 188.828 90.8193 187.276 87.4781 185.526L87.7092 184.72C90.2712 184.489 92.8332 184.027 95.3886 184.08C98.9213 184.146 101.463 182.733 103.497 179.94C105.042 177.814 106.733 175.753 109.288 174.703C112.022 173.581 114.716 173.733 117.172 175.324C118.678 176.301 119.8 176.189 121.345 175.331C125.433 173.066 129.896 173.277 132.307 177.034C136.519 183.598 142.555 184.582 149.356 184.516C149.871 184.516 150.465 184.436 151.007 185.42H151Z" fill="white"/>
<path d="M14.9298 65.9042C12.1631 56.7523 6.19393 51.2783 -2.64102 48.2937C6.19393 45.3091 12.1565 39.8285 14.8374 30.637C17.789 39.4125 23.2497 45.461 32.4347 48.1418C23.7384 51.3906 17.5447 56.7523 14.9232 65.8976L14.9298 65.9042Z" fill="white"/>
<path d="M20.3378 92.6533C27.6144 90.1243 32.5007 85.6739 34.8382 78.1001C37.1823 85.5946 41.9497 90.2828 49.4046 92.6203C42.2469 95.1559 37.2483 99.6196 34.8316 107.088C32.329 99.7979 27.588 95.0635 20.3378 92.6533Z" fill="white"/>
<path d="M60.6035 25.447C62.4524 30.4455 65.5294 33.6546 70.6601 35.5101C65.8266 37.359 62.5448 40.469 60.663 45.5402C58.8405 40.5615 55.5588 37.3259 50.4414 35.5365C55.4201 33.6942 58.8735 30.5908 60.5969 25.447H60.6035Z" fill="white"/>
</g>
<path d="M217.936 0.295746H32.197C14.9563 0.295746 0.931274 14.3207 0.931274 31.568V217.3C0.931274 234.547 14.9563 248.572 32.197 248.572H217.936C235.176 248.572 249.208 234.547 249.208 217.3V31.568C249.208 14.3207 235.176 0.295746 217.936 0.295746ZM245.246 217.3C245.246 232.362 232.991 244.611 217.936 244.611H32.197C17.1419 244.611 4.89314 232.362 4.89314 217.3V31.568C4.89314 16.5064 17.1419 4.25761 32.197 4.25761H217.936C232.991 4.25761 245.246 16.5064 245.246 31.568V217.3Z" fill="white"/>
</svg>
